<?xml version="1.0" encoding="UTF-8" standalone="no"?>
<!DOCTYPE svg PUBLIC "-//W3C//DTD SVG 1.1//EN"
 "http://www.w3.org/Graphics/SVG/1.1/DTD/svg11.dtd">
<!-- Generated by graphviz version 2.43.0 (0)
 -->
<!-- Title: dag Pages: 1 -->
<svg width="654pt" height="912pt"
 viewBox="0.00 0.00 653.60 911.80" xmlns="http://www.w3.org/2000/svg" xmlns:xlink="http://www.w3.org/1999/xlink">
<g id="graph0" class="graph" transform="scale(1 1) rotate(0) translate(4 907.8)">
<title>dag</title>
<polygon fill="white" stroke="transparent" points="-4,4 -4,-907.8 649.6,-907.8 649.6,4 -4,4"/>
<!-- v0 -->
<g id="node1" class="node">
<title>v0</title>
<ellipse fill="black" stroke="black" cx="133.6" cy="-885.2" rx="3.6" ry="3.6"/>
<text text-anchor="middle" x="65" y="-892.6" font-family="Times,serif" font-size="14.00">Channel.fromPath</text>
</g>
<!-- v3 -->
<g id="node2" class="node">
<title>v3</title>
<ellipse fill="none" stroke="black" cx="133.6" cy="-827.1" rx="3.5" ry="3.5"/>
<text text-anchor="middle" x="93.1" y="-834.4" font-family="Times,serif" font-size="14.00">collectFile</text>
</g>
<!-- v0&#45;&gt;v3 -->
<g id="edge1" class="edge">
<title>v0&#45;&gt;v3</title>
<path fill="none" stroke="black" d="M133.6,-881.49C133.6,-874.26 133.6,-854.13 133.6,-840.76"/>
<polygon fill="black" stroke="black" points="137.1,-840.65 133.6,-830.65 130.1,-840.65 137.1,-840.65"/>
<text text-anchor="middle" x="168.1" y="-852.4" font-family="Times,serif" font-size="14.00">proteome</text>
</g>
<!-- v8 -->
<g id="node7" class="node">
<title>v8</title>
<ellipse fill="none" stroke="black" cx="82.6" cy="-754.6" rx="66.09" ry="18"/>
<text text-anchor="middle" x="82.6" y="-750.9" font-family="Times,serif" font-size="14.00">DiamondDB</text>
</g>
<!-- v3&#45;&gt;v8 -->
<g id="edge4" class="edge">
<title>v3&#45;&gt;v8</title>
<path fill="none" stroke="black" d="M130.03,-826.08C119.76,-825.8 90.05,-823.42 77.6,-805.6 72.96,-798.96 72.34,-790.57 73.44,-782.56"/>
<polygon fill="black" stroke="black" points="76.86,-783.3 75.57,-772.78 70.02,-781.81 76.86,-783.3"/>
<text text-anchor="middle" x="127.1" y="-794.4" font-family="Times,serif" font-size="14.00">all_sequences</text>
</g>
<!-- v9 -->
<g id="node12" class="node">
<title>v9</title>
<ellipse fill="none" stroke="black" cx="136.6" cy="-667.6" rx="89.08" ry="18"/>
<text text-anchor="middle" x="136.6" y="-663.9" font-family="Times,serif" font-size="14.00">DiamondBLASTp</text>
</g>
<!-- v3&#45;&gt;v9 -->
<g id="edge10" class="edge">
<title>v3&#45;&gt;v9</title>
<path fill="none" stroke="black" d="M136.84,-825.71C145.2,-824.5 167.51,-820.01 176.6,-805.6 200.79,-767.26 195.33,-744.88 176.6,-703.6 174.8,-699.63 172.3,-695.93 169.42,-692.54"/>
<polygon fill="black" stroke="black" points="171.69,-689.86 162.17,-685.21 166.71,-694.78 171.69,-689.86"/>
<text text-anchor="middle" x="242.1" y="-750.9" font-family="Times,serif" font-size="14.00">all_sequences</text>
</g>
<!-- v1 -->
<g id="node3" class="node">
<title>v1</title>
<ellipse fill="black" stroke="black" cx="389.6" cy="-580.6" rx="3.6" ry="3.6"/>
<text text-anchor="middle" x="321" y="-588" font-family="Times,serif" font-size="14.00">Channel.fromPath</text>
</g>
<!-- v4 -->
<g id="node4" class="node">
<title>v4</title>
<ellipse fill="none" stroke="black" cx="389.6" cy="-493.6" rx="69.59" ry="18"/>
<text text-anchor="middle" x="389.6" y="-489.9" font-family="Times,serif" font-size="14.00">SelectLabels</text>
</g>
<!-- v1&#45;&gt;v4 -->
<g id="edge2" class="edge">
<title>v1&#45;&gt;v4</title>
<path fill="none" stroke="black" d="M389.6,-576.77C389.6,-568.28 389.6,-542.35 389.6,-521.87"/>
<polygon fill="black" stroke="black" points="393.1,-521.77 389.6,-511.77 386.1,-521.77 393.1,-521.77"/>
<text text-anchor="middle" x="428.1" y="-533.4" font-family="Times,serif" font-size="14.00">annotation</text>
</g>
<!-- v5 -->
<g id="node8" class="node">
<title>v5</title>
<ellipse fill="none" stroke="black" cx="389.6" cy="-406.6" rx="3.5" ry="3.5"/>
<text text-anchor="middle" x="349.1" y="-413.9" font-family="Times,serif" font-size="14.00">collectFile</text>
</g>
<!-- v4&#45;&gt;v5 -->
<g id="edge5" class="edge">
<title>v4&#45;&gt;v5</title>
<path fill="none" stroke="black" d="M389.6,-475.4C389.6,-459.21 389.6,-435.31 389.6,-420.64"/>
<polygon fill="black" stroke="black" points="393.1,-420.24 389.6,-410.24 386.1,-420.24 393.1,-420.24"/>
<text text-anchor="middle" x="452.6" y="-446.4" font-family="Times,serif" font-size="14.00">select_annotation</text>
</g>
<!-- v2 -->
<g id="node5" class="node">
<title>v2</title>
<ellipse fill="black" stroke="black" cx="294.6" cy="-493.6" rx="3.6" ry="3.6"/>
<text text-anchor="middle" x="296.4" y="-478.8" font-family="Times,serif" font-size="14.00">Channel.fromList</text>
</g>
<!-- v12 -->
<g id="node6" class="node">
<title>v12</title>
<ellipse fill="none" stroke="black" cx="141.6" cy="-406.6" rx="67.69" ry="18"/>
<text text-anchor="middle" x="141.6" y="-402.9" font-family="Times,serif" font-size="14.00">NetworkMcl</text>
</g>
<!-- v2&#45;&gt;v12 -->
<g id="edge3" class="edge">
<title>v2&#45;&gt;v12</title>
<path fill="none" stroke="black" d="M294.23,-489.84C292.93,-481.39 287.86,-455.69 272.6,-442.6 256.47,-428.78 235.44,-420.35 214.96,-415.23"/>
<polygon fill="black" stroke="black" points="215.5,-411.76 204.98,-412.98 213.96,-418.59 215.5,-411.76"/>
<text text-anchor="middle" x="312.6" y="-446.4" font-family="Times,serif" font-size="14.00">inflation</text>
</g>
<!-- v13 -->
<g id="node15" class="node">
<title>v13</title>
<ellipse fill="none" stroke="black" cx="141.6" cy="-319.6" rx="96.68" ry="18"/>
<text text-anchor="middle" x="141.6" y="-315.9" font-family="Times,serif" font-size="14.00">NetworkMcxdump</text>
</g>
<!-- v12&#45;&gt;v13 -->
<g id="edge14" class="edge">
<title>v12&#45;&gt;v13</title>
<path fill="none" stroke="black" d="M141.6,-388.4C141.6,-376.76 141.6,-361.15 141.6,-347.84"/>
<polygon fill="black" stroke="black" points="145.1,-347.78 141.6,-337.78 138.1,-347.78 145.1,-347.78"/>
<text text-anchor="middle" x="176.6" y="-359.4" font-family="Times,serif" font-size="14.00">tuple_mcl</text>
</g>
<!-- v8&#45;&gt;v9 -->
<g id="edge9" class="edge">
<title>v8&#45;&gt;v9</title>
<path fill="none" stroke="black" d="M81.8,-736.31C82.08,-726.14 83.79,-713.4 89.6,-703.6 92.25,-699.12 95.73,-695.03 99.58,-691.36"/>
<polygon fill="black" stroke="black" points="101.96,-693.93 107.36,-684.81 97.46,-688.57 101.96,-693.93"/>
<text text-anchor="middle" x="133.1" y="-707.4" font-family="Times,serif" font-size="14.00">diamond_db</text>
</g>
<!-- v6 -->
<g id="node9" class="node">
<title>v6</title>
<ellipse fill="none" stroke="black" cx="389.6" cy="-319.6" rx="124.28" ry="18"/>
<text text-anchor="middle" x="389.6" y="-315.9" font-family="Times,serif" font-size="14.00">LabelHomogeneityScore</text>
</g>
<!-- v5&#45;&gt;v6 -->
<g id="edge6" class="edge">
<title>v5&#45;&gt;v6</title>
<path fill="none" stroke="black" d="M389.6,-402.77C389.6,-394.28 389.6,-368.35 389.6,-347.87"/>
<polygon fill="black" stroke="black" points="393.1,-347.77 389.6,-337.77 386.1,-347.77 393.1,-347.77"/>
<text text-anchor="middle" x="452.6" y="-359.4" font-family="Times,serif" font-size="14.00">select_annotation</text>
</g>
<!-- v7 -->
<g id="node10" class="node">
<title>v7</title>
<ellipse fill="none" stroke="black" cx="389.6" cy="-232.6" rx="3.5" ry="3.5"/>
<text text-anchor="middle" x="362.6" y="-239.9" font-family="Times,serif" font-size="14.00">collect</text>
</g>
<!-- v6&#45;&gt;v7 -->
<g id="edge7" class="edge">
<title>v6&#45;&gt;v7</title>
<path fill="none" stroke="black" d="M389.6,-301.4C389.6,-285.21 389.6,-261.31 389.6,-246.64"/>
<polygon fill="black" stroke="black" points="393.1,-246.24 389.6,-236.24 386.1,-246.24 393.1,-246.24"/>
<text text-anchor="middle" x="439.6" y="-272.4" font-family="Times,serif" font-size="14.00">label_network</text>
</g>
<!-- v15 -->
<g id="node11" class="node">
<title>v15</title>
<ellipse fill="none" stroke="black" cx="363.6" cy="-145.6" rx="98.58" ry="18"/>
<text text-anchor="middle" x="363.6" y="-141.9" font-family="Times,serif" font-size="14.00">HomogeneityScore</text>
</g>
<!-- v7&#45;&gt;v15 -->
<g id="edge8" class="edge">
<title>v7&#45;&gt;v15</title>
<path fill="none" stroke="black" d="M388.85,-229.15C386.36,-221.01 378.16,-194.21 371.78,-173.33"/>
<polygon fill="black" stroke="black" points="375.09,-172.21 368.82,-163.67 368.4,-174.25 375.09,-172.21"/>
<text text-anchor="middle" x="427.6" y="-185.4" font-family="Times,serif" font-size="14.00">label_network</text>
</g>
<!-- v16 -->
<g id="node17" class="node">
<title>v16</title>
<ellipse fill="none" stroke="black" cx="291.6" cy="-58.6" rx="74.99" ry="18"/>
<text text-anchor="middle" x="291.6" y="-54.9" font-family="Times,serif" font-size="14.00">PlotHomScAll</text>
</g>
<!-- v15&#45;&gt;v16 -->
<g id="edge17" class="edge">
<title>v15&#45;&gt;v16</title>
<path fill="none" stroke="black" d="M315.24,-129.69C306.29,-124.73 298.06,-118.18 292.6,-109.6 288.32,-102.88 286.99,-94.55 287.03,-86.63"/>
<polygon fill="black" stroke="black" points="290.52,-86.85 287.75,-76.62 283.54,-86.34 290.52,-86.85"/>
<text text-anchor="middle" x="364.6" y="-98.4" font-family="Times,serif" font-size="14.00">tuple_hom_score_all</text>
</g>
<!-- v18 -->
<g id="node18" class="node">
<title>v18</title>
<ellipse fill="none" stroke="black" cx="458.6" cy="-58.6" rx="74.99" ry="18"/>
<text text-anchor="middle" x="458.6" y="-54.9" font-family="Times,serif" font-size="14.00">PlotHomScAn</text>
</g>
<!-- v15&#45;&gt;v18 -->
<g id="edge18" class="edge">
<title>v15&#45;&gt;v18</title>
<path fill="none" stroke="black" d="M408.2,-129.36C418.47,-124.29 428.68,-117.78 436.6,-109.6 442.88,-103.11 447.54,-94.52 450.9,-86.3"/>
<polygon fill="black" stroke="black" points="454.3,-87.22 454.39,-76.62 447.71,-84.84 454.3,-87.22"/>
<text text-anchor="middle" x="546.1" y="-98.4" font-family="Times,serif" font-size="14.00">tuple_hom_score_annotated</text>
</g>
<!-- v10 -->
<g id="node13" class="node">
<title>v10</title>
<ellipse fill="none" stroke="black" cx="136.6" cy="-580.6" rx="107.48" ry="18"/>
<text text-anchor="middle" x="136.6" y="-576.9" font-family="Times,serif" font-size="14.00">FiltrationAlignments</text>
</g>
<!-- v9&#45;&gt;v10 -->
<g id="edge11" class="edge">
<title>v9&#45;&gt;v10</title>
<path fill="none" stroke="black" d="M136.6,-649.4C136.6,-637.76 136.6,-622.15 136.6,-608.84"/>
<polygon fill="black" stroke="black" points="140.1,-608.78 136.6,-598.78 133.1,-608.78 140.1,-608.78"/>
<text text-anchor="middle" x="207.1" y="-620.4" font-family="Times,serif" font-size="14.00">diamond_alignment</text>
</g>
<!-- v11 -->
<g id="node14" class="node">
<title>v11</title>
<ellipse fill="none" stroke="black" cx="136.6" cy="-493.6" rx="89.88" ry="18"/>
<text text-anchor="middle" x="136.6" y="-489.9" font-family="Times,serif" font-size="14.00">NetworkMcxload</text>
</g>
<!-- v10&#45;&gt;v11 -->
<g id="edge12" class="edge">
<title>v10&#45;&gt;v11</title>
<path fill="none" stroke="black" d="M136.6,-562.4C136.6,-550.76 136.6,-535.15 136.6,-521.84"/>
<polygon fill="black" stroke="black" points="140.1,-521.78 136.6,-511.78 133.1,-521.78 140.1,-521.78"/>
<text text-anchor="middle" x="183.1" y="-533.4" font-family="Times,serif" font-size="14.00">diamond_ssn</text>
</g>
<!-- v11&#45;&gt;v12 -->
<g id="edge13" class="edge">
<title>v11&#45;&gt;v12</title>
<path fill="none" stroke="black" d="M136.55,-475.46C136.62,-465.8 136.87,-453.52 137.6,-442.6 137.77,-440.04 137.99,-437.37 138.25,-434.71"/>
<polygon fill="black" stroke="black" points="141.74,-434.98 139.33,-424.66 134.78,-434.23 141.74,-434.98"/>
<text text-anchor="middle" x="205.1" y="-446.4" font-family="Times,serif" font-size="14.00">tuple_seq_dict_mci</text>
</g>
<!-- v14 -->
<g id="node16" class="node">
<title>v14</title>
<ellipse fill="none" stroke="black" cx="141.6" cy="-232.6" rx="94.78" ry="18"/>
<text text-anchor="middle" x="141.6" y="-228.9" font-family="Times,serif" font-size="14.00">NetworkMclToTsv</text>
</g>
<!-- v13&#45;&gt;v14 -->
<g id="edge15" class="edge">
<title>v13&#45;&gt;v14</title>
<path fill="none" stroke="black" d="M141.6,-301.4C141.6,-289.76 141.6,-274.15 141.6,-260.84"/>
<polygon fill="black" stroke="black" points="145.1,-260.78 141.6,-250.78 138.1,-260.78 145.1,-260.78"/>
<text text-anchor="middle" x="184.1" y="-272.4" font-family="Times,serif" font-size="14.00">tuple_dump</text>
</g>
<!-- v14&#45;&gt;v15 -->
<g id="edge16" class="edge">
<title>v14&#45;&gt;v15</title>
<path fill="none" stroke="black" d="M189.12,-216.99C205.96,-211.29 224.88,-204.27 241.6,-196.6 253.73,-191.04 255.51,-187.24 267.6,-181.6 280.41,-175.63 294.54,-169.98 307.93,-165.04"/>
<polygon fill="black" stroke="black" points="309.31,-168.26 317.53,-161.57 306.93,-161.68 309.31,-168.26"/>
<text text-anchor="middle" x="319.1" y="-185.4" font-family="Times,serif" font-size="14.00">tuple_network</text>
</g>
<!-- v20 -->
<g id="node21" class="node">
<title>v20</title>
<ellipse fill="none" stroke="black" cx="137.6" cy="-145.6" rx="83.39" ry="18"/>
<text text-anchor="middle" x="137.6" y="-141.9" font-family="Times,serif" font-size="14.00">PlotClusterSize</text>
</g>
<!-- v14&#45;&gt;v20 -->
<g id="edge21" class="edge">
<title>v14&#45;&gt;v20</title>
<path fill="none" stroke="black" d="M139.91,-214.53C139.41,-208.83 138.91,-202.45 138.6,-196.6 138.21,-189.26 137.97,-181.31 137.82,-173.95"/>
<polygon fill="black" stroke="black" points="141.32,-173.68 137.67,-163.73 134.32,-173.79 141.32,-173.68"/>
<text text-anchor="middle" x="190.1" y="-185.4" font-family="Times,serif" font-size="14.00">tuple_network</text>
</g>
<!-- v17 -->
<g id="node19" class="node">
<title>v17</title>
<ellipse fill="black" stroke="black" cx="291.6" cy="-1.8" rx="1.8" ry="1.8"/>
</g>
<!-- v16&#45;&gt;v17 -->
<g id="edge19" class="edge">
<title>v16&#45;&gt;v17</title>
<path fill="none" stroke="black" d="M291.6,-40.56C291.6,-31.87 291.6,-21.56 291.6,-13.9"/>
<polygon fill="black" stroke="black" points="295.1,-13.76 291.6,-3.76 288.1,-13.76 295.1,-13.76"/>
</g>
<!-- v19 -->
<g id="node20" class="node">
<title>v19</title>
<ellipse fill="black" stroke="black" cx="458.6" cy="-1.8" rx="1.8" ry="1.8"/>
</g>
<!-- v18&#45;&gt;v19 -->
<g id="edge20" class="edge">
<title>v18&#45;&gt;v19</title>
<path fill="none" stroke="black" d="M458.6,-40.56C458.6,-31.87 458.6,-21.56 458.6,-13.9"/>
<polygon fill="black" stroke="black" points="462.1,-13.76 458.6,-3.76 455.1,-13.76 462.1,-13.76"/>
</g>
<!-- v22 -->
<g id="node22" class="node">
<title>v22</title>
<ellipse fill="black" stroke="black" cx="125.6" cy="-58.6" rx="1.8" ry="1.8"/>
</g>
<!-- v20&#45;&gt;v22 -->
<g id="edge22" class="edge">
<title>v20&#45;&gt;v22</title>
<path fill="none" stroke="black" d="M135.17,-127.4C132.79,-110.52 129.22,-85.26 127.18,-70.82"/>
<polygon fill="black" stroke="black" points="130.62,-70.09 125.75,-60.68 123.69,-71.07 130.62,-70.09"/>
</g>
<!-- v21 -->
<g id="node23" class="node">
<title>v21</title>
<ellipse fill="black" stroke="black" cx="150.6" cy="-58.6" rx="1.8" ry="1.8"/>
</g>
<!-- v20&#45;&gt;v21 -->
<g id="edge23" class="edge">
<title>v20&#45;&gt;v21</title>
<path fill="none" stroke="black" d="M140.23,-127.4C142.81,-110.52 146.68,-85.26 148.88,-70.82"/>
<polygon fill="black" stroke="black" points="152.38,-71.1 150.43,-60.68 145.46,-70.04 152.38,-71.1"/>
</g>
</g>
</svg>
