<?xml version="1.0" encoding="UTF-8" standalone="no"?>
<!DOCTYPE svg PUBLIC "-//W3C//DTD SVG 1.1//EN"
 "http://www.w3.org/Graphics/SVG/1.1/DTD/svg11.dtd">
<!-- Generated by graphviz version 2.43.0 (0)
 -->
<!-- Title: dag Pages: 1 -->
<svg width="989pt" height="941pt"
 viewBox="0.00 0.00 989.24 940.80" xmlns="http://www.w3.org/2000/svg" xmlns:xlink="http://www.w3.org/1999/xlink">
<g id="graph0" class="graph" transform="scale(1 1) rotate(0) translate(4 936.8)">
<title>dag</title>
<polygon fill="white" stroke="transparent" points="-4,4 -4,-936.8 985.24,-936.8 985.24,4 -4,4"/>
<!-- v0 -->
<g id="node1" class="node">
<title>v0</title>
<ellipse fill="black" stroke="black" cx="234.24" cy="-914.2" rx="3.6" ry="3.6"/>
<text text-anchor="middle" x="165.64" y="-921.6" font-family="Times,serif" font-size="14.00">Channel.fromPath</text>
</g>
<!-- v4 -->
<g id="node2" class="node">
<title>v4</title>
<ellipse fill="none" stroke="black" cx="188.24" cy="-841.6" rx="3.5" ry="3.5"/>
<text text-anchor="middle" x="147.74" y="-848.9" font-family="Times,serif" font-size="14.00">collectFile</text>
</g>
<!-- v0&#45;&gt;v4 -->
<g id="edge1" class="edge">
<title>v0&#45;&gt;v4</title>
<path fill="none" stroke="black" d="M230.87,-912.84C222.17,-911.72 198.95,-907.4 189.24,-892.6 181.98,-881.54 183.01,-865.93 185.03,-855.11"/>
<polygon fill="black" stroke="black" points="188.49,-855.7 187.42,-845.16 181.68,-854.06 188.49,-855.7"/>
<text text-anchor="middle" x="223.74" y="-881.4" font-family="Times,serif" font-size="14.00">proteome</text>
</g>
<!-- v11 -->
<g id="node8" class="node">
<title>v11</title>
<ellipse fill="none" stroke="black" cx="369.24" cy="-841.6" rx="87.99" ry="18"/>
<text text-anchor="middle" x="369.24" y="-837.9" font-family="Times,serif" font-size="14.00">InformationFiles</text>
</g>
<!-- v0&#45;&gt;v11 -->
<g id="edge12" class="edge">
<title>v0&#45;&gt;v11</title>
<path fill="none" stroke="black" d="M237.09,-911.5C245.93,-906.27 273.66,-889.98 297.24,-877.6 306.66,-872.66 316.88,-867.54 326.59,-862.8"/>
<polygon fill="black" stroke="black" points="328.22,-865.89 335.69,-858.38 325.16,-859.6 328.22,-865.89"/>
<text text-anchor="middle" x="331.74" y="-881.4" font-family="Times,serif" font-size="14.00">proteome</text>
</g>
<!-- v20 -->
<g id="node9" class="node">
<title>v20</title>
<ellipse fill="none" stroke="black" cx="79.24" cy="-754.6" rx="66.09" ry="18"/>
<text text-anchor="middle" x="79.24" y="-750.9" font-family="Times,serif" font-size="14.00">DiamondDB</text>
</g>
<!-- v4&#45;&gt;v20 -->
<g id="edge5" class="edge">
<title>v4&#45;&gt;v20</title>
<path fill="none" stroke="black" d="M184.73,-840.81C168.92,-841.52 104,-842.1 77.24,-805.6 72.53,-799.17 71.45,-790.92 72.01,-782.99"/>
<polygon fill="black" stroke="black" points="75.5,-783.33 73.51,-772.92 68.57,-782.29 75.5,-783.33"/>
<text text-anchor="middle" x="126.74" y="-794.4" font-family="Times,serif" font-size="14.00">all_sequences</text>
</g>
<!-- v21 -->
<g id="node24" class="node">
<title>v21</title>
<ellipse fill="none" stroke="black" cx="107.24" cy="-667.6" rx="89.08" ry="18"/>
<text text-anchor="middle" x="107.24" y="-663.9" font-family="Times,serif" font-size="14.00">DiamondBLASTp</text>
</g>
<!-- v4&#45;&gt;v21 -->
<g id="edge23" class="edge">
<title>v4&#45;&gt;v21</title>
<path fill="none" stroke="black" d="M188.85,-838.06C192.17,-823.43 206.99,-749.1 176.24,-703.6 172.3,-697.77 167.08,-692.86 161.27,-688.73"/>
<polygon fill="black" stroke="black" points="162.76,-685.54 152.42,-683.24 159.07,-691.49 162.76,-685.54"/>
<text text-anchor="middle" x="243.74" y="-750.9" font-family="Times,serif" font-size="14.00">all_sequences</text>
</g>
<!-- v1 -->
<g id="node3" class="node">
<title>v1</title>
<ellipse fill="black" stroke="black" cx="758.24" cy="-841.6" rx="3.6" ry="3.6"/>
<text text-anchor="middle" x="689.64" y="-849" font-family="Times,serif" font-size="14.00">Channel.fromPath</text>
</g>
<!-- v6 -->
<g id="node4" class="node">
<title>v6</title>
<ellipse fill="none" stroke="black" cx="808.24" cy="-754.6" rx="91.78" ry="18"/>
<text text-anchor="middle" x="808.24" y="-750.9" font-family="Times,serif" font-size="14.00">SelectLabelAttrib</text>
</g>
<!-- v1&#45;&gt;v6 -->
<g id="edge2" class="edge">
<title>v1&#45;&gt;v6</title>
<path fill="none" stroke="black" d="M757.44,-837.67C755.42,-829.6 750.82,-806.57 759.24,-790.6 761.68,-785.98 765.03,-781.83 768.85,-778.14"/>
<polygon fill="black" stroke="black" points="771.22,-780.72 776.64,-771.62 766.73,-775.35 771.22,-780.72"/>
<text text-anchor="middle" x="797.74" y="-794.4" font-family="Times,serif" font-size="14.00">annotation</text>
</g>
<!-- v7 -->
<g id="node11" class="node">
<title>v7</title>
<ellipse fill="none" stroke="black" cx="808.24" cy="-667.6" rx="3.5" ry="3.5"/>
<text text-anchor="middle" x="767.74" y="-674.9" font-family="Times,serif" font-size="14.00">collectFile</text>
</g>
<!-- v6&#45;&gt;v7 -->
<g id="edge7" class="edge">
<title>v6&#45;&gt;v7</title>
<path fill="none" stroke="black" d="M808.24,-736.4C808.24,-720.21 808.24,-696.31 808.24,-681.64"/>
<polygon fill="black" stroke="black" points="811.74,-681.24 808.24,-671.24 804.74,-681.24 811.74,-681.24"/>
<text text-anchor="middle" x="871.24" y="-707.4" font-family="Times,serif" font-size="14.00">select_annotation</text>
</g>
<!-- v2 -->
<g id="node5" class="node">
<title>v2</title>
<ellipse fill="black" stroke="black" cx="265.24" cy="-493.6" rx="3.6" ry="3.6"/>
<text text-anchor="middle" x="323.64" y="-501" font-family="Times,serif" font-size="14.00">Channel.fromList</text>
</g>
<!-- v24 -->
<g id="node6" class="node">
<title>v24</title>
<ellipse fill="none" stroke="black" cx="227.24" cy="-406.6" rx="67.69" ry="18"/>
<text text-anchor="middle" x="227.24" y="-402.9" font-family="Times,serif" font-size="14.00">NetworkMcl</text>
</g>
<!-- v2&#45;&gt;v24 -->
<g id="edge3" class="edge">
<title>v2&#45;&gt;v24</title>
<path fill="none" stroke="black" d="M264.06,-489.88C260.79,-482.36 251.31,-460.6 243.24,-442.6 241.97,-439.77 240.63,-436.81 239.29,-433.86"/>
<polygon fill="black" stroke="black" points="242.44,-432.31 235.1,-424.67 236.07,-435.22 242.44,-432.31"/>
<text text-anchor="middle" x="279.24" y="-446.4" font-family="Times,serif" font-size="14.00">inflation</text>
</g>
<!-- v25 -->
<g id="node27" class="node">
<title>v25</title>
<ellipse fill="none" stroke="black" cx="227.24" cy="-319.6" rx="96.68" ry="18"/>
<text text-anchor="middle" x="227.24" y="-315.9" font-family="Times,serif" font-size="14.00">NetworkMcxdump</text>
</g>
<!-- v24&#45;&gt;v25 -->
<g id="edge27" class="edge">
<title>v24&#45;&gt;v25</title>
<path fill="none" stroke="black" d="M227.24,-388.4C227.24,-376.76 227.24,-361.15 227.24,-347.84"/>
<polygon fill="black" stroke="black" points="230.74,-347.78 227.24,-337.78 223.74,-347.78 230.74,-347.78"/>
<text text-anchor="middle" x="262.24" y="-359.4" font-family="Times,serif" font-size="14.00">tuple_mcl</text>
</g>
<!-- v3 -->
<g id="node7" class="node">
<title>v3</title>
<ellipse fill="black" stroke="black" cx="372.24" cy="-914.2" rx="3.6" ry="3.6"/>
<text text-anchor="middle" x="303.64" y="-921.6" font-family="Times,serif" font-size="14.00">Channel.fromPath</text>
</g>
<!-- v3&#45;&gt;v11 -->
<g id="edge4" class="edge">
<title>v3&#45;&gt;v11</title>
<path fill="none" stroke="black" d="M372.13,-910.52C371.84,-903.85 371.08,-885.9 370.41,-870.13"/>
<polygon fill="black" stroke="black" points="373.89,-869.57 369.97,-859.73 366.9,-869.87 373.89,-869.57"/>
<text text-anchor="middle" x="431.74" y="-881.4" font-family="Times,serif" font-size="14.00">information_files</text>
</g>
<!-- v13 -->
<g id="node16" class="node">
<title>v13</title>
<ellipse fill="none" stroke="black" cx="493.24" cy="-754.6" rx="83.39" ry="18"/>
<text text-anchor="middle" x="493.24" y="-750.9" font-family="Times,serif" font-size="14.00">SelectLabelInfo</text>
</g>
<!-- v11&#45;&gt;v13 -->
<g id="edge13" class="edge">
<title>v11&#45;&gt;v13</title>
<path fill="none" stroke="black" d="M371.19,-823.24C373.25,-812.53 377.5,-799.24 386.24,-790.6 395.55,-781.4 407.3,-774.62 419.59,-769.62"/>
<polygon fill="black" stroke="black" points="420.88,-772.88 429.05,-766.14 418.46,-766.31 420.88,-772.88"/>
<text text-anchor="middle" x="437.74" y="-794.4" font-family="Times,serif" font-size="14.00">proteome_info</text>
</g>
<!-- v20&#45;&gt;v21 -->
<g id="edge22" class="edge">
<title>v20&#45;&gt;v21</title>
<path fill="none" stroke="black" d="M81.51,-736.16C83.08,-726.41 85.56,-714.13 89.24,-703.6 90.27,-700.66 91.5,-697.66 92.83,-694.72"/>
<polygon fill="black" stroke="black" points="96.03,-696.14 97.28,-685.62 89.74,-693.06 96.03,-696.14"/>
<text text-anchor="middle" x="132.74" y="-707.4" font-family="Times,serif" font-size="14.00">diamond_db</text>
</g>
<!-- v5 -->
<g id="node10" class="node">
<title>v5</title>
<ellipse fill="black" stroke="black" cx="858.24" cy="-841.6" rx="3.6" ry="3.6"/>
</g>
<!-- v5&#45;&gt;v6 -->
<g id="edge6" class="edge">
<title>v5&#45;&gt;v6</title>
<path fill="none" stroke="black" d="M857.29,-837.77C854.6,-829.93 846.46,-807.47 836.24,-790.6 834.17,-787.18 831.8,-783.72 829.34,-780.38"/>
<polygon fill="black" stroke="black" points="832.03,-778.14 823.13,-772.39 826.5,-782.44 832.03,-778.14"/>
<text text-anchor="middle" x="912.24" y="-794.4" font-family="Times,serif" font-size="14.00">columns_attributes</text>
</g>
<!-- v10 -->
<g id="node12" class="node">
<title>v10</title>
<ellipse fill="none" stroke="black" cx="678.24" cy="-580.6" rx="70.69" ry="18"/>
<text text-anchor="middle" x="678.24" y="-576.9" font-family="Times,serif" font-size="14.00">LabHomScAt</text>
</g>
<!-- v7&#45;&gt;v10 -->
<g id="edge8" class="edge">
<title>v7&#45;&gt;v10</title>
<path fill="none" stroke="black" d="M807.24,-663.88C804.06,-655.57 793.34,-630.21 776.24,-616.6 765.43,-608 752.34,-601.41 739.3,-596.41"/>
<polygon fill="black" stroke="black" points="740.43,-593.1 729.84,-593.04 738.08,-599.69 740.43,-593.1"/>
<text text-anchor="middle" x="852.24" y="-620.4" font-family="Times,serif" font-size="14.00">select_annotation</text>
</g>
<!-- v18 -->
<g id="node15" class="node">
<title>v18</title>
<ellipse fill="none" stroke="black" cx="467.24" cy="-493.6" rx="3.5" ry="3.5"/>
<text text-anchor="middle" x="440.24" y="-500.9" font-family="Times,serif" font-size="14.00">concat</text>
</g>
<!-- v10&#45;&gt;v18 -->
<g id="edge11" class="edge">
<title>v10&#45;&gt;v18</title>
<path fill="none" stroke="black" d="M641.97,-564.99C593.7,-545.54 510.83,-512.16 479.61,-499.58"/>
<polygon fill="black" stroke="black" points="480.7,-496.25 470.12,-495.76 478.09,-502.74 480.7,-496.25"/>
<text text-anchor="middle" x="635.24" y="-533.4" font-family="Times,serif" font-size="14.00">label_network</text>
</g>
<!-- v8 -->
<g id="node13" class="node">
<title>v8</title>
<ellipse fill="black" stroke="black" cx="592.24" cy="-667.6" rx="3.6" ry="3.6"/>
</g>
<!-- v8&#45;&gt;v10 -->
<g id="edge9" class="edge">
<title>v8&#45;&gt;v10</title>
<path fill="none" stroke="black" d="M591.09,-664.03C587.73,-656.13 578.86,-631.84 589.24,-616.6 595.26,-607.76 603.89,-601.15 613.43,-596.22"/>
<polygon fill="black" stroke="black" points="615.13,-599.29 622.8,-591.97 612.24,-592.91 615.13,-599.29"/>
<text text-anchor="middle" x="658.24" y="-620.4" font-family="Times,serif" font-size="14.00">columns_attributes</text>
</g>
<!-- v9 -->
<g id="node14" class="node">
<title>v9</title>
<ellipse fill="black" stroke="black" cx="753.24" cy="-667.6" rx="3.6" ry="3.6"/>
</g>
<!-- v9&#45;&gt;v10 -->
<g id="edge10" class="edge">
<title>v9&#45;&gt;v10</title>
<path fill="none" stroke="black" d="M752.66,-664.04C750.78,-656.17 744.21,-631.97 731.24,-616.6 727.04,-611.62 721.96,-607.08 716.62,-603.03"/>
<polygon fill="black" stroke="black" points="718.32,-599.95 708.12,-597.1 714.32,-605.69 718.32,-599.95"/>
<text text-anchor="middle" x="756.24" y="-620.4" font-family="Times,serif" font-size="14.00">type</text>
</g>
<!-- v19 -->
<g id="node22" class="node">
<title>v19</title>
<ellipse fill="none" stroke="black" cx="467.24" cy="-363.1" rx="3.5" ry="3.5"/>
<text text-anchor="middle" x="440.24" y="-370.4" font-family="Times,serif" font-size="14.00">collect</text>
</g>
<!-- v18&#45;&gt;v19 -->
<g id="edge20" class="edge">
<title>v18&#45;&gt;v19</title>
<path fill="none" stroke="black" d="M467.24,-489.92C467.24,-475.41 467.24,-406 467.24,-376.94"/>
<polygon fill="black" stroke="black" points="470.74,-376.77 467.24,-366.77 463.74,-376.77 470.74,-376.77"/>
</g>
<!-- v14 -->
<g id="node18" class="node">
<title>v14</title>
<ellipse fill="none" stroke="black" cx="493.24" cy="-667.6" rx="3.5" ry="3.5"/>
<text text-anchor="middle" x="452.74" y="-674.9" font-family="Times,serif" font-size="14.00">collectFile</text>
</g>
<!-- v13&#45;&gt;v14 -->
<g id="edge15" class="edge">
<title>v13&#45;&gt;v14</title>
<path fill="none" stroke="black" d="M493.24,-736.4C493.24,-720.21 493.24,-696.31 493.24,-681.64"/>
<polygon fill="black" stroke="black" points="496.74,-681.24 493.24,-671.24 489.74,-681.24 496.74,-681.24"/>
<text text-anchor="middle" x="531.24" y="-707.4" font-family="Times,serif" font-size="14.00">select_info</text>
</g>
<!-- v12 -->
<g id="node17" class="node">
<title>v12</title>
<ellipse fill="black" stroke="black" cx="495.24" cy="-841.6" rx="3.6" ry="3.6"/>
</g>
<!-- v12&#45;&gt;v13 -->
<g id="edge14" class="edge">
<title>v12&#45;&gt;v13</title>
<path fill="none" stroke="black" d="M495.17,-837.77C494.97,-829.28 494.36,-803.35 493.88,-782.87"/>
<polygon fill="black" stroke="black" points="497.38,-782.68 493.64,-772.77 490.38,-782.85 497.38,-782.68"/>
<text text-anchor="middle" x="563.24" y="-794.4" font-family="Times,serif" font-size="14.00">columns_attributes</text>
</g>
<!-- v17 -->
<g id="node19" class="node">
<title>v17</title>
<ellipse fill="none" stroke="black" cx="441.24" cy="-580.6" rx="70.39" ry="18"/>
<text text-anchor="middle" x="441.24" y="-576.9" font-family="Times,serif" font-size="14.00">LabHomScIn</text>
</g>
<!-- v14&#45;&gt;v17 -->
<g id="edge16" class="edge">
<title>v14&#45;&gt;v17</title>
<path fill="none" stroke="black" d="M492.46,-664.18C490.01,-656.74 481.95,-633.62 471.24,-616.6 468.99,-613.02 466.38,-609.42 463.67,-605.97"/>
<polygon fill="black" stroke="black" points="466.35,-603.71 457.26,-598.26 460.96,-608.19 466.35,-603.71"/>
<text text-anchor="middle" x="516.24" y="-620.4" font-family="Times,serif" font-size="14.00">select_info</text>
</g>
<!-- v17&#45;&gt;v18 -->
<g id="edge19" class="edge">
<title>v17&#45;&gt;v18</title>
<path fill="none" stroke="black" d="M446.5,-562.4C451.51,-546.04 458.91,-521.82 463.39,-507.19"/>
<polygon fill="black" stroke="black" points="466.85,-507.83 466.43,-497.24 460.16,-505.78 466.85,-507.83"/>
<text text-anchor="middle" x="501.74" y="-533.4" font-family="Times,serif" font-size="14.00">info_network</text>
</g>
<!-- v15 -->
<g id="node20" class="node">
<title>v15</title>
<ellipse fill="black" stroke="black" cx="277.24" cy="-667.6" rx="3.6" ry="3.6"/>
</g>
<!-- v15&#45;&gt;v17 -->
<g id="edge17" class="edge">
<title>v15&#45;&gt;v17</title>
<path fill="none" stroke="black" d="M277.42,-663.83C278.13,-655.36 281.47,-629.61 296.24,-616.6 314.52,-600.5 338.94,-591.5 362.52,-586.57"/>
<polygon fill="black" stroke="black" points="363.37,-589.97 372.56,-584.69 362.09,-583.09 363.37,-589.97"/>
<text text-anchor="middle" x="365.24" y="-620.4" font-family="Times,serif" font-size="14.00">columns_attributes</text>
</g>
<!-- v16 -->
<g id="node21" class="node">
<title>v16</title>
<ellipse fill="black" stroke="black" cx="438.24" cy="-667.6" rx="3.6" ry="3.6"/>
</g>
<!-- v16&#45;&gt;v17 -->
<g id="edge18" class="edge">
<title>v16&#45;&gt;v17</title>
<path fill="none" stroke="black" d="M438.26,-663.89C438.32,-656.37 438.54,-634.65 439.24,-616.6 439.34,-614.05 439.46,-611.39 439.59,-608.73"/>
<polygon fill="black" stroke="black" points="443.09,-608.86 440.14,-598.68 436.1,-608.48 443.09,-608.86"/>
<text text-anchor="middle" x="455.24" y="-620.4" font-family="Times,serif" font-size="14.00">type</text>
</g>
<!-- v27 -->
<g id="node23" class="node">
<title>v27</title>
<ellipse fill="none" stroke="black" cx="445.24" cy="-145.6" rx="98.58" ry="18"/>
<text text-anchor="middle" x="445.24" y="-141.9" font-family="Times,serif" font-size="14.00">HomogeneityScore</text>
</g>
<!-- v19&#45;&gt;v27 -->
<g id="edge21" class="edge">
<title>v19&#45;&gt;v27</title>
<path fill="none" stroke="black" d="M467.18,-359.54C466.8,-343.36 464.21,-253.69 453.24,-181.6 452.83,-178.92 452.33,-176.14 451.78,-173.37"/>
<polygon fill="black" stroke="black" points="455.2,-172.62 449.65,-163.59 448.36,-174.11 455.2,-172.62"/>
<text text-anchor="middle" x="513.24" y="-272.4" font-family="Times,serif" font-size="14.00">label_network</text>
</g>
<!-- v28 -->
<g id="node29" class="node">
<title>v28</title>
<ellipse fill="none" stroke="black" cx="377.24" cy="-58.6" rx="74.99" ry="18"/>
<text text-anchor="middle" x="377.24" y="-54.9" font-family="Times,serif" font-size="14.00">PlotHomScAll</text>
</g>
<!-- v27&#45;&gt;v28 -->
<g id="edge30" class="edge">
<title>v27&#45;&gt;v28</title>
<path fill="none" stroke="black" d="M399.9,-129.4C391.32,-124.44 383.42,-117.97 378.24,-109.6 374.15,-103 372.8,-94.92 372.77,-87.19"/>
<polygon fill="black" stroke="black" points="376.27,-87.24 373.41,-77.04 369.28,-86.8 376.27,-87.24"/>
<text text-anchor="middle" x="450.24" y="-98.4" font-family="Times,serif" font-size="14.00">tuple_hom_score_all</text>
</g>
<!-- v30 -->
<g id="node30" class="node">
<title>v30</title>
<ellipse fill="none" stroke="black" cx="544.24" cy="-58.6" rx="74.99" ry="18"/>
<text text-anchor="middle" x="544.24" y="-54.9" font-family="Times,serif" font-size="14.00">PlotHomScAn</text>
</g>
<!-- v27&#45;&gt;v30 -->
<g id="edge31" class="edge">
<title>v27&#45;&gt;v30</title>
<path fill="none" stroke="black" d="M492.27,-129.76C503.1,-124.67 513.88,-118.06 522.24,-109.6 528.66,-103.1 533.36,-94.42 536.73,-86.11"/>
<polygon fill="black" stroke="black" points="540.03,-87.28 540.1,-76.68 533.44,-84.92 540.03,-87.28"/>
<text text-anchor="middle" x="631.74" y="-98.4" font-family="Times,serif" font-size="14.00">tuple_hom_score_annotated</text>
</g>
<!-- v22 -->
<g id="node25" class="node">
<title>v22</title>
<ellipse fill="none" stroke="black" cx="107.24" cy="-580.6" rx="107.48" ry="18"/>
<text text-anchor="middle" x="107.24" y="-576.9" font-family="Times,serif" font-size="14.00">FiltrationAlignments</text>
</g>
<!-- v21&#45;&gt;v22 -->
<g id="edge24" class="edge">
<title>v21&#45;&gt;v22</title>
<path fill="none" stroke="black" d="M107.24,-649.4C107.24,-637.76 107.24,-622.15 107.24,-608.84"/>
<polygon fill="black" stroke="black" points="110.74,-608.78 107.24,-598.78 103.74,-608.78 110.74,-608.78"/>
<text text-anchor="middle" x="177.74" y="-620.4" font-family="Times,serif" font-size="14.00">diamond_alignment</text>
</g>
<!-- v23 -->
<g id="node26" class="node">
<title>v23</title>
<ellipse fill="none" stroke="black" cx="107.24" cy="-493.6" rx="89.88" ry="18"/>
<text text-anchor="middle" x="107.24" y="-489.9" font-family="Times,serif" font-size="14.00">NetworkMcxload</text>
</g>
<!-- v22&#45;&gt;v23 -->
<g id="edge25" class="edge">
<title>v22&#45;&gt;v23</title>
<path fill="none" stroke="black" d="M107.24,-562.4C107.24,-550.76 107.24,-535.15 107.24,-521.84"/>
<polygon fill="black" stroke="black" points="110.74,-521.78 107.24,-511.78 103.74,-521.78 110.74,-521.78"/>
<text text-anchor="middle" x="153.74" y="-533.4" font-family="Times,serif" font-size="14.00">diamond_ssn</text>
</g>
<!-- v23&#45;&gt;v24 -->
<g id="edge26" class="edge">
<title>v23&#45;&gt;v24</title>
<path fill="none" stroke="black" d="M100.94,-475.22C98.34,-464.77 97.32,-451.76 104.24,-442.6 111.71,-432.71 136.07,-424.78 161.16,-419"/>
<polygon fill="black" stroke="black" points="162.14,-422.37 171.16,-416.8 160.64,-415.53 162.14,-422.37"/>
<text text-anchor="middle" x="171.74" y="-446.4" font-family="Times,serif" font-size="14.00">tuple_seq_dict_mci</text>
</g>
<!-- v26 -->
<g id="node28" class="node">
<title>v26</title>
<ellipse fill="none" stroke="black" cx="227.24" cy="-232.6" rx="94.78" ry="18"/>
<text text-anchor="middle" x="227.24" y="-228.9" font-family="Times,serif" font-size="14.00">NetworkMclToTsv</text>
</g>
<!-- v25&#45;&gt;v26 -->
<g id="edge28" class="edge">
<title>v25&#45;&gt;v26</title>
<path fill="none" stroke="black" d="M227.24,-301.4C227.24,-289.76 227.24,-274.15 227.24,-260.84"/>
<polygon fill="black" stroke="black" points="230.74,-260.78 227.24,-250.78 223.74,-260.78 230.74,-260.78"/>
<text text-anchor="middle" x="269.74" y="-272.4" font-family="Times,serif" font-size="14.00">tuple_dump</text>
</g>
<!-- v26&#45;&gt;v27 -->
<g id="edge29" class="edge">
<title>v26&#45;&gt;v27</title>
<path fill="none" stroke="black" d="M276.01,-217.16C292.62,-211.55 311.07,-204.56 327.24,-196.6 338.19,-191.21 339.33,-187.08 350.24,-181.6 362.38,-175.5 375.85,-169.9 388.74,-165.04"/>
<polygon fill="black" stroke="black" points="390.27,-168.21 398.45,-161.48 387.86,-161.64 390.27,-168.21"/>
<text text-anchor="middle" x="401.74" y="-185.4" font-family="Times,serif" font-size="14.00">tuple_network</text>
</g>
<!-- v32 -->
<g id="node33" class="node">
<title>v32</title>
<ellipse fill="none" stroke="black" cx="223.24" cy="-145.6" rx="83.39" ry="18"/>
<text text-anchor="middle" x="223.24" y="-141.9" font-family="Times,serif" font-size="14.00">PlotClusterSize</text>
</g>
<!-- v26&#45;&gt;v32 -->
<g id="edge34" class="edge">
<title>v26&#45;&gt;v32</title>
<path fill="none" stroke="black" d="M225.55,-214.53C225.05,-208.83 224.55,-202.45 224.24,-196.6 223.85,-189.26 223.61,-181.31 223.46,-173.95"/>
<polygon fill="black" stroke="black" points="226.96,-173.68 223.31,-163.73 219.96,-173.79 226.96,-173.68"/>
<text text-anchor="middle" x="275.74" y="-185.4" font-family="Times,serif" font-size="14.00">tuple_network</text>
</g>
<!-- v29 -->
<g id="node31" class="node">
<title>v29</title>
<ellipse fill="black" stroke="black" cx="377.24" cy="-1.8" rx="1.8" ry="1.8"/>
</g>
<!-- v28&#45;&gt;v29 -->
<g id="edge32" class="edge">
<title>v28&#45;&gt;v29</title>
<path fill="none" stroke="black" d="M377.24,-40.56C377.24,-31.87 377.24,-21.56 377.24,-13.9"/>
<polygon fill="black" stroke="black" points="380.74,-13.76 377.24,-3.76 373.74,-13.76 380.74,-13.76"/>
</g>
<!-- v31 -->
<g id="node32" class="node">
<title>v31</title>
<ellipse fill="black" stroke="black" cx="544.24" cy="-1.8" rx="1.8" ry="1.8"/>
</g>
<!-- v30&#45;&gt;v31 -->
<g id="edge33" class="edge">
<title>v30&#45;&gt;v31</title>
<path fill="none" stroke="black" d="M544.24,-40.56C544.24,-31.87 544.24,-21.56 544.24,-13.9"/>
<polygon fill="black" stroke="black" points="547.74,-13.76 544.24,-3.76 540.74,-13.76 547.74,-13.76"/>
</g>
<!-- v34 -->
<g id="node34" class="node">
<title>v34</title>
<ellipse fill="black" stroke="black" cx="211.24" cy="-58.6" rx="1.8" ry="1.8"/>
</g>
<!-- v32&#45;&gt;v34 -->
<g id="edge35" class="edge">
<title>v32&#45;&gt;v34</title>
<path fill="none" stroke="black" d="M220.81,-127.4C218.43,-110.52 214.86,-85.26 212.82,-70.82"/>
<polygon fill="black" stroke="black" points="216.26,-70.09 211.39,-60.68 209.33,-71.07 216.26,-70.09"/>
</g>
<!-- v33 -->
<g id="node35" class="node">
<title>v33</title>
<ellipse fill="black" stroke="black" cx="236.24" cy="-58.6" rx="1.8" ry="1.8"/>
</g>
<!-- v32&#45;&gt;v33 -->
<g id="edge36" class="edge">
<title>v32&#45;&gt;v33</title>
<path fill="none" stroke="black" d="M225.87,-127.4C228.45,-110.52 232.32,-85.26 234.53,-70.82"/>
<polygon fill="black" stroke="black" points="238.02,-71.1 236.07,-60.68 231.1,-70.04 238.02,-71.1"/>
</g>
</g>
</svg>
